<?xml version="1.0"?>
<svg xmlns="http://www.w3.org/2000/svg" viewBox="0 0 512 512" width="512" height="512"><g id="Outline"><path d="M446.24,248c25.591,0,47.359-19.14,49.558-43.571A48.031,48.031,0,0,0,472,158.474V128a112,112,0,1,0-224,0v30.474a48.03,48.03,0,0,0-23.8,45.953C226.4,228.86,248.169,248,273.76,248H320v24H273.28a48.038,48.038,0,0,0-47.225,39.258l-4.773,25.675a23.286,23.286,0,0,0-8.612-.856l11.3-135.411A8,8,0,0,0,216,192H56a8,8,0,0,0-7.972,7.335L32.639,384H24a8,8,0,0,0-8,8v96a8,8,0,0,0,8,8H200V429.2a8,8,0,0,0-8-8H179.36a39.784,39.784,0,0,1-17.934-4.271L160,416.216V416h-.432l-11.11-5.555A7.982,7.982,0,0,1,144,403.28V380.72a1.52,1.52,0,0,1,.766-1.355,1.635,1.635,0,0,1,1.617-.109l7.88,3.98a57.815,57.815,0,0,0,12.91,4.642l.111.025a57.788,57.788,0,0,0,12.076,1.3H208a8,8,0,0,0,7.146-11.6l-7.333-14.585a7.67,7.67,0,0,1,1.444-8.8,7.535,7.535,0,0,1,11.265.692c.048.066.1.131.148.195a8.122,8.122,0,0,1,.993,1.755L232,382.739V496h24l19.244-68.26A70.951,70.951,0,0,0,280,434.8V496h16V432a8,8,0,0,0-1.854-5.122A54.608,54.608,0,0,1,282.63,381a54.769,54.769,0,0,1,18.478-30.844l-10.216-12.314a70.66,70.66,0,0,0-21.837,32.176l-27.122-5.548-5.464-13.679c-.032-.08-.065-.16-.1-.24-.313-.714-.639-1.368-.973-2l6.39-34.373A32.035,32.035,0,0,1,273.28,288h27.391a64,64,0,0,0,118.658,0H440a32.036,32.036,0,0,1,32,32v56H452.6a70.1,70.1,0,0,0-23.474-38.146l-10.244,12.292a54.481,54.481,0,0,1,6.976,76.732A8,8,0,0,0,424,432v64h16V434.8A70.127,70.127,0,0,0,454.435,392H472V496h16V320a48.055,48.055,0,0,0-48-48H400V248Zm-314.6,168H64V400h64v3.28A23.914,23.914,0,0,0,131.636,416ZM32,448V432H48v16Zm0-48H48v16H32Zm0,64H48v16H32Zm32,16V464H184v16Zm115.36-42.8H184V448H64V432h91.906A55.515,55.515,0,0,0,179.36,437.2Zm-25.834-72.261-.1-.05A17.674,17.674,0,0,0,128,380.72V384H48.694L63.361,208H175.3L161.847,369.125c-.132-.065-.269-.12-.4-.186ZM179.36,373.2c-.6,0-1.194-.022-1.794-.049L191.36,208h15.945L195.839,345.365a23.754,23.754,0,0,0-2.355,24.772l1.533,3.063ZM248,466.082V382.044l17.813,3.644c-.183,2.1-.293,4.228-.293,6.392a69.4,69.4,0,0,0,.574,8.8Zm83.558-240.767a63.613,63.613,0,0,1-35.524-55.377,35.973,35.973,0,0,0,55.3-23.075,14.638,14.638,0,0,1,17.328,0,35.973,35.973,0,0,0,55.3,23.075,63.966,63.966,0,0,1-92.408,55.377ZM424,140a20,20,0,1,1-20-20A20.023,20.023,0,0,1,424,140Zm-20-36a36.061,36.061,0,0,0-34.446,25.541,30.825,30.825,0,0,0-19.108,0,35.885,35.885,0,0,0-4.931-10.117,152.6,152.6,0,0,0,26.826-31.267,57.79,57.79,0,0,1,29.867,10.9,59.612,59.612,0,0,1,6.3,5.239A36.1,36.1,0,0,0,404,104Zm-68,36a20,20,0,1,1-20-20A20.023,20.023,0,0,1,336,140Zm-95.862,62.991a32.046,32.046,0,0,1,19.07-32.283A8,8,0,0,0,264,163.38V128a96,96,0,0,1,192,0v35.38a8,8,0,0,0,4.792,7.328,32.047,32.047,0,0,1,19.07,32.285C478.4,219.259,463.63,232,446.24,232H408a79.441,79.441,0,0,0,32-64V128a8,8,0,0,0-.386-2.456l-.829-2.567A74.777,74.777,0,0,0,368,72a8,8,0,0,0-6.854,3.873,136.674,136.674,0,0,1-27.537,32.745A35.975,35.975,0,0,0,280,140v28a79.444,79.444,0,0,0,31.993,64H273.76C256.37,232,241.6,219.259,240.138,202.991ZM401.557,288a47.979,47.979,0,0,1-83.114,0H320a16.019,16.019,0,0,0,16-16V244.3a79.7,79.7,0,0,0,48,0V272a16.019,16.019,0,0,0,16,16Z" fill='#fff'/><path d="M381.294,179.963A68.335,68.335,0,0,1,358.111,184H344v16h14.111a84.282,84.282,0,0,0,28.6-4.98Z" fill='#fff'/><rect x="80" y="248" width="72" height="16" fill='#fff'/><rect x="88" y="280" width="48" height="16" fill='#fff'/></g></svg>
